<svg width="80" height="80" viewBox="0 0 80 80" fill="none" xmlns="http://www.w3.org/2000/svg">
<rect width="80" height="80" rx="5.75" fill="#B5FFE9"/>
<path d="M46.25 23.7891L45.4297 24.6875C43.5938 26.709 42.0801 27.6123 40.8203 28.2031C39.5605 28.7939 38.501 28.9697 37.4609 29.7656C36.3525 30.6152 34.7412 32.2461 34.0625 35.1562C32.6074 35.4736 31.543 36.0303 30.7031 36.7578C29.873 37.4756 29.248 38.291 28.4766 39.1797C28.4717 39.1895 28.4814 39.209 28.4766 39.2188C27.373 40.4883 26.4062 41.8555 24.5312 42.5781L23.75 42.8906V56.25H47.5781C48.9453 56.1768 49.8926 55.2295 50.4688 54.2969C51.0449 53.3643 51.3623 52.3535 51.5234 51.5234C51.9385 49.4092 52.6953 43.3203 52.6953 43.3203L52.7344 43.2031V43.0859C52.6953 42.2412 52.3486 41.5234 51.9141 40.8594L53.3203 36.6797L55.5469 33.3203L56.1719 32.4219L55.3516 31.6797L47.1484 24.5703L46.25 23.7891ZM46.3281 27.2266L52.8516 32.8906L51.1328 35.4297L51.0156 35.5469L50.9766 35.7422L49.8438 39.1016C49.2529 38.8574 48.6426 38.6865 47.9688 38.7109H47.8906L40 38.75H38.75V43.5938C38.5742 44.9561 37.8174 45.4834 36.875 45.8594C36.5625 45.9863 36.5234 45.918 36.25 45.9766V38.7109C36.0449 34.0771 37.6953 32.7441 38.9844 31.7578C39.3408 31.4844 40.3857 31.167 41.875 30.4688C43.1201 29.8828 44.668 28.833 46.3281 27.2266ZM33.8281 37.9688C33.8232 38.252 33.7354 38.4521 33.75 38.75C33.75 38.7646 33.75 38.7744 33.75 38.7891V48.75H35C35 48.75 36.3379 48.7354 37.7734 48.1641C39.209 47.5928 40.9424 46.2549 41.25 43.9062V41.25L47.9688 41.2109H48.0078C49.1602 41.1475 50.1172 42.0215 50.1953 43.1641C50.1904 43.1836 50.1318 43.6475 50.1172 43.75H45V46.25H49.8047C49.6729 47.2168 49.5508 47.8223 49.4141 48.75H45V51.25H49.0234C48.8916 51.8066 48.6279 52.4707 48.3203 52.9688C47.9785 53.5254 47.6855 53.7354 47.4219 53.75H26.25V44.4141C28.2764 43.3398 29.5361 41.792 30.3516 40.8594C31.1963 39.8926 31.7773 39.1602 32.3438 38.6719C32.7148 38.3545 33.2959 38.1738 33.8281 37.9688Z" fill="#064C37"/>
</svg>
