<svg width="59" height="45" viewBox="0 0 59 45" fill="none" xmlns="http://www.w3.org/2000/svg">
<path d="M12.144 44.58L6.432 29.412H3.36V44.58H0V11.556H3.36V26.244H6.432L12.144 11.556H15.6L9.12 27.684L15.648 44.58H12.144Z" fill="white"/>
<path d="M20.5706 44.58V11.556H23.9306V14.628V26.34V29.412V41.508V44.58H20.5706Z" fill="white"/>
<path d="M33.2272 41.652C34.4753 41.588 35.3232 41.428 35.7713 41.172C36.2193 40.884 36.4912 40.244 36.5872 39.252C36.7152 38.26 36.7793 36.356 36.7793 33.54V11.556H40.1393V32.388C40.1393 36.516 40.0112 39.348 39.7552 40.884C39.4992 42.42 38.9392 43.412 38.0752 43.86C37.2113 44.308 35.5952 44.548 33.2272 44.58V41.652Z" fill="white"/>
<path d="M47.6632 4.86C46.52 4.86 45.5933 3.93323 45.5933 2.79V2.07C45.5933 0.92677 46.52 0 47.6632 0C48.8065 0 49.7332 0.926771 49.7332 2.07V2.79C49.7332 3.93323 48.8065 4.86 47.6632 4.86ZM45.6533 44.58V13.98H49.6133V44.58H45.6533Z" fill="white"/>
<path d="M45.6533 44.58V11.556H58.2293V14.628H49.0133V26.34H57.0773V29.412H49.0133V41.508H58.2293V44.58H45.6533Z" fill="white"/>
</svg>
