<svg width="40" height="41" viewBox="0 0 40 41" fill="none" xmlns="http://www.w3.org/2000/svg">
<circle cx="20" cy="20.5" r="20" fill="#B5FFE9"/>
<path d="M20 30.5C25.5228 30.5 30 26.0228 30 20.5C30 14.9772 25.5228 10.5 20 10.5C14.4772 10.5 10 14.9772 10 20.5C10 26.0228 14.4772 30.5 20 30.5Z" stroke="#064C37" stroke-width="2" stroke-linecap="round" stroke-linejoin="round"/>
<path d="M17.0898 17.5001C17.3249 16.8317 17.789 16.2682 18.3998 15.9092C19.0106 15.5502 19.7287 15.419 20.427 15.5388C21.1253 15.6586 21.7587 16.0216 22.2149 16.5636C22.6712 17.1056 22.9209 17.7916 22.9198 18.5001C22.9198 20.5001 19.9198 21.5001 19.9198 21.5001" stroke="#064C37" stroke-width="2" stroke-linecap="round" stroke-linejoin="round"/>
<path d="M20 25.5H20.01" stroke="#064C37" stroke-width="2" stroke-linecap="round" stroke-linejoin="round"/>
</svg>
