<svg width="314" height="339" viewBox="0 0 314 339" fill="none" xmlns="http://www.w3.org/2000/svg">
<path opacity="0.25" fill-rule="evenodd" clip-rule="evenodd" d="M243.571 -95.6736C286.046 -107.887 329.21 -137.732 370.32 -121.45C411.386 -105.185 430.684 -57.6758 445.059 -15.8713C457.029 18.9424 440.988 55.1342 443.661 91.8497C446.929 136.745 484.353 182.988 462.393 222.252C440.643 261.142 385.198 260.856 342.353 272.987C298.784 285.323 255.626 303.096 211.4 293.318C162.763 282.566 110.892 260.572 87.3649 216.613C64.2458 173.416 86.7969 121.875 93.6837 73.3736C99.8502 29.9447 96.2851 -18.2161 125.366 -51.0139C154.021 -83.3328 202.076 -83.7418 243.571 -95.6736Z" stroke="#60BBF9" stroke-width="2" stroke-dasharray="100 50"/>
<path opacity="0.5" fill-rule="evenodd" clip-rule="evenodd" d="M242.43 -80.6332C285.808 -89.0983 331.41 -115.068 370.943 -95.2646C410.436 -75.4824 425.52 -26.4719 436.196 16.4263C445.087 52.1508 425.953 86.8068 425.415 123.616C424.758 168.625 458.009 217.954 432.711 255.154C407.654 292 352.445 286.883 308.706 295.234C264.228 303.726 219.684 317.67 176.479 304.075C128.964 289.124 79.2075 262.693 59.6012 216.851C40.3348 171.803 67.2923 122.424 78.38 74.7072C88.3081 31.981 88.9541 -16.3072 120.782 -46.4457C152.146 -76.1441 200.053 -72.3633 242.43 -80.6332Z" stroke="#60BBF9" stroke-width="2" stroke-dasharray="100 50"/>
<path opacity="0.75" fill-rule="evenodd" clip-rule="evenodd" d="M239.528 -65.3326C283.479 -69.9849 331.17 -91.8809 368.828 -68.7077C406.445 -45.5589 417.201 4.57982 424.097 48.2453C429.841 84.6087 407.759 117.465 404.016 154.087C399.438 198.868 428.263 250.907 399.819 285.761C371.646 320.283 317.093 310.374 272.793 314.881C227.744 319.464 182.155 329.472 140.298 312.163C94.2677 293.128 47.0039 262.461 31.4675 215.084C16.2007 168.53 47.3593 121.687 62.5635 75.1187C76.1777 33.4204 81.0298 -14.6278 115.364 -41.8776C149.196 -68.7294 196.592 -60.7876 239.528 -65.3326Z" stroke="#60BBF9" stroke-width="2" stroke-dasharray="100 50"/>
<path fill-rule="evenodd" clip-rule="evenodd" d="M234.849 -49.9265C279.038 -50.7306 328.456 -68.3866 363.95 -42.0196C399.408 -15.6802 405.752 35.2051 408.817 79.3055C411.369 116.031 386.508 146.838 379.587 182.994C371.124 227.205 395.304 281.559 363.93 313.801C332.855 345.736 279.374 331.11 234.849 331.739C189.572 332.378 143.284 338.376 103.096 317.484C58.8994 294.51 14.4882 259.84 3.14012 211.29C-8.01115 163.582 27.1115 119.633 46.3166 74.5669C63.5133 34.2138 72.5345 -13.2287 109.113 -37.3823C145.157 -61.1833 191.68 -49.1409 234.849 -49.9265Z" stroke="#60BBF9" stroke-width="2" stroke-dasharray="100 50"/>
</svg>
