<svg width="80" height="80" viewBox="0 0 80 80" fill="none" xmlns="http://www.w3.org/2000/svg">
<rect width="80" height="80" rx="5.75" fill="#B5FFE9"/>
<path d="M38.75 23.75C31.1914 23.75 25 29.9414 25 37.5C25 40.2051 26.0498 42.4707 26.9922 44.4922C27.9346 46.5137 28.75 48.2861 28.75 50.1172V56.25H31.25V50.1172C31.25 47.5732 30.1904 45.4443 29.2578 43.4375C28.3252 41.4307 27.5 39.5459 27.5 37.5C27.5 31.7334 31.8994 26.9629 37.5 26.3281V35.1953C35.3516 35.752 33.75 37.6855 33.75 40C33.75 42.749 36.001 45 38.75 45C39.7266 45 40.6348 44.7119 41.4062 44.2188L43.75 45.8203C43.8428 46.7676 44.6533 47.5 45.625 47.5C46.6602 47.5 47.5 46.6602 47.5 45.625C47.5 44.5898 46.6602 43.75 45.625 43.75C45.4932 43.75 45.3564 43.7646 45.2344 43.7891L43.125 42.3438C43.5059 41.6406 43.75 40.8545 43.75 40C43.75 37.6855 42.1484 35.752 40 35.1953V26.2891C43.9551 26.6113 46.2256 28.4473 47.6172 30.2734C49.1553 32.2852 49.5312 34.2578 49.5312 34.2578L49.5703 34.4141L49.6484 34.5703L52.9688 41.25C53.0615 41.4648 53.0518 41.6309 53.0469 41.6797H52.9688C52.2998 41.9043 50.9375 42.3047 50.9375 42.3047L50 42.5391V46.25C50 47.085 49.5312 48.0469 48.7891 48.7891C48.0469 49.5312 47.085 50 46.25 50H43.75V56.25H46.25V52.5C47.915 52.5 49.4531 51.7188 50.5859 50.5859C51.7188 49.4531 52.5 47.915 52.5 46.25V44.4141C52.9248 44.292 53.208 44.2529 53.6719 44.1016C53.7109 44.0918 53.75 44.0723 53.7891 44.0625V44.0234C54.5947 43.7695 55.2686 43.1006 55.4688 42.3828C55.6836 41.6211 55.5469 40.918 55.2734 40.2734V40.2344L55.2344 40.1953L51.9141 33.5156L51.875 33.4375C51.7773 32.998 51.2793 30.9863 49.5703 28.75C47.6709 26.2598 44.2432 23.75 38.75 23.75ZM38.75 37.5C40.1465 37.5 41.25 38.6035 41.25 40C41.25 41.3965 40.1465 42.5 38.75 42.5C37.3535 42.5 36.25 41.3965 36.25 40C36.25 38.6035 37.3535 37.5 38.75 37.5Z" fill="black"/>
</svg>
