<svg width="80" height="80" viewBox="0 0 80 80" fill="none" xmlns="http://www.w3.org/2000/svg">
<rect width="80" height="80" rx="5.75" fill="#B5FFE9"/>
<path d="M55 39.1667C55.0057 41.3665 54.4918 43.5365 53.5 45.5C52.3241 47.853 50.5162 49.832 48.2791 51.2155C46.0419 52.599 43.4637 53.3324 40.8333 53.3334C38.6336 53.3391 36.4635 52.8252 34.5 51.8334L25 55L28.1667 45.5C27.1749 43.5365 26.6609 41.3665 26.6667 39.1667C26.6677 36.5363 27.401 33.9581 28.7845 31.721C30.168 29.4838 32.1471 27.676 34.5 26.5C36.4635 25.5083 38.6336 24.9943 40.8333 25H41.6667C45.1406 25.1917 48.4217 26.658 50.8819 29.1181C53.3421 31.5783 54.8083 34.8595 55 38.3334V39.1667Z" stroke="#064C37" stroke-width="2" stroke-linecap="round" stroke-linejoin="round"/>
</svg>
